<?xml version="1.0" encoding="UTF-8" standalone="no"?>
<!DOCTYPE svg PUBLIC "-//W3C//DTD SVG 1.1//EN"
 "http://www.w3.org/Graphics/SVG/1.1/DTD/svg11.dtd">
<!-- Generated by graphviz version 2.38.0 (20140413.2041)
 -->
<!-- Title: G Pages: 1 -->
<svg width="648pt" height="1438pt"
 viewBox="0.00 0.00 647.67 1438.00" xmlns="http://www.w3.org/2000/svg" xmlns:xlink="http://www.w3.org/1999/xlink">
<g id="graph0" class="graph" transform="scale(1 1) rotate(0) translate(4 1434)">
<title>G</title>
<polygon fill="white" stroke="none" points="-4,4 -4,-1434 643.668,-1434 643.668,4 -4,4"/>
<g id="clust1" class="cluster"><title>cluster_Global</title>
<path fill="none" stroke="gray" d="M140.834,-98C140.834,-98 619.668,-98 619.668,-98 625.668,-98 631.668,-104 631.668,-110 631.668,-110 631.668,-1410 631.668,-1410 631.668,-1416 625.668,-1422 619.668,-1422 619.668,-1422 140.834,-1422 140.834,-1422 134.834,-1422 128.834,-1416 128.834,-1410 128.834,-1410 128.834,-110 128.834,-110 128.834,-104 134.834,-98 140.834,-98"/>
<text text-anchor="middle" x="380.251" y="-1409.2" font-family="Times,serif" font-size="11.00" fill="gray">Global</text>
</g>
<g id="clust2" class="cluster"><title>cluster_\Application</title>
<path fill="none" stroke="gray" d="M148.834,-106C148.834,-106 611.668,-106 611.668,-106 617.668,-106 623.668,-112 623.668,-118 623.668,-118 623.668,-1382 623.668,-1382 623.668,-1388 617.668,-1394 611.668,-1394 611.668,-1394 148.834,-1394 148.834,-1394 142.834,-1394 136.834,-1388 136.834,-1382 136.834,-1382 136.834,-118 136.834,-118 136.834,-112 142.834,-106 148.834,-106"/>
<text text-anchor="middle" x="380.251" y="-1381.2" font-family="Times,serif" font-size="11.00" fill="gray">Application</text>
</g>
<g id="clust3" class="cluster"><title>cluster_\Application\Entity</title>
<path fill="none" stroke="gray" d="M156.834,-322C156.834,-322 592.168,-322 592.168,-322 598.168,-322 604.168,-328 604.168,-334 604.168,-334 604.168,-1354 604.168,-1354 604.168,-1360 598.168,-1366 592.168,-1366 592.168,-1366 156.834,-1366 156.834,-1366 150.834,-1366 144.834,-1360 144.834,-1354 144.834,-1354 144.834,-334 144.834,-334 144.834,-328 150.834,-322 156.834,-322"/>
<text text-anchor="middle" x="374.501" y="-1353.2" font-family="Times,serif" font-size="11.00" fill="gray">Entity</text>
</g>
<g id="clust4" class="cluster"><title>cluster_\Application\Controller</title>
<path fill="none" stroke="gray" d="M430.668,-160C430.668,-160 603.668,-160 603.668,-160 609.668,-160 615.668,-166 615.668,-172 615.668,-172 615.668,-302 615.668,-302 615.668,-308 609.668,-314 603.668,-314 603.668,-314 430.668,-314 430.668,-314 424.668,-314 418.668,-308 418.668,-302 418.668,-302 418.668,-172 418.668,-172 418.668,-166 424.668,-160 430.668,-160"/>
<text text-anchor="middle" x="517.168" y="-301.2" font-family="Times,serif" font-size="11.00" fill="gray">Controller</text>
</g>
<g id="clust5" class="cluster"><title>cluster_\Application\Controller\Factory</title>
<path fill="none" stroke="gray" d="M438.668,-214C438.668,-214 595.668,-214 595.668,-214 601.668,-214 607.668,-220 607.668,-226 607.668,-226 607.668,-274 607.668,-274 607.668,-280 601.668,-286 595.668,-286 595.668,-286 438.668,-286 438.668,-286 432.668,-286 426.668,-280 426.668,-274 426.668,-274 426.668,-226 426.668,-226 426.668,-220 432.668,-214 438.668,-214"/>
<text text-anchor="middle" x="517.168" y="-273.2" font-family="Times,serif" font-size="11.00" fill="gray">Factory</text>
</g>
<!-- \\Application\\Entity\\User -->
<g id="node1" class="node"><title>\\Application\\Entity\\User</title>
<polygon fill="none" stroke="black" points="544.168,-1338 490.168,-1338 490.168,-1302 544.168,-1302 544.168,-1338"/>
<text text-anchor="middle" x="517.168" y="-1317.2" font-family="Courier,monospace" font-size="11.00">User</text>
</g>
<!-- \\Application\\Entity\\EventCategory -->
<g id="node2" class="node"><title>\\Application\\Entity\\EventCategory</title>
<polygon fill="none" stroke="black" points="569.168,-1284 465.168,-1284 465.168,-1248 569.168,-1248 569.168,-1284"/>
<text text-anchor="middle" x="517.168" y="-1263.2" font-family="Courier,monospace" font-size="11.00">EventCategory</text>
</g>
<!-- \\Application\\Entity\\LocationType -->
<g id="node3" class="node"><title>\\Application\\Entity\\LocationType</title>
<polygon fill="none" stroke="black" points="566.168,-1230 468.168,-1230 468.168,-1194 566.168,-1194 566.168,-1230"/>
<text text-anchor="middle" x="517.168" y="-1209.2" font-family="Courier,monospace" font-size="11.00">LocationType</text>
</g>
<!-- \\Application\\Entity\\EventType -->
<g id="node4" class="node"><title>\\Application\\Entity\\EventType</title>
<polygon fill="none" stroke="black" points="555.668,-1176 478.668,-1176 478.668,-1140 555.668,-1140 555.668,-1176"/>
<text text-anchor="middle" x="517.168" y="-1155.2" font-family="Courier,monospace" font-size="11.00">EventType</text>
</g>
<!-- \\Application\\Entity\\ReasonForCancellation -->
<g id="node5" class="node"><title>\\Application\\Entity\\ReasonForCancellation</title>
<polygon fill="none" stroke="black" points="596.168,-1122 438.168,-1122 438.168,-1086 596.168,-1086 596.168,-1122"/>
<text text-anchor="middle" x="517.168" y="-1101.2" font-family="Courier,monospace" font-size="11.00">ReasonForCancellation</text>
</g>
<!-- \\Application\\Entity\\Holiday -->
<g id="node6" class="node"><title>\\Application\\Entity\\Holiday</title>
<polygon fill="none" stroke="black" points="549.168,-1068 485.168,-1068 485.168,-1032 549.168,-1032 549.168,-1068"/>
<text text-anchor="middle" x="517.168" y="-1047.2" font-family="Courier,monospace" font-size="11.00">Holiday</text>
</g>
<!-- \\Application\\Entity\\Location -->
<g id="node7" class="node"><title>\\Application\\Entity\\Location</title>
<polygon fill="none" stroke="black" points="552.668,-1014 481.668,-1014 481.668,-978 552.668,-978 552.668,-1014"/>
<text text-anchor="middle" x="517.168" y="-993.2" font-family="Courier,monospace" font-size="11.00">Location</text>
</g>
<!-- \\Application\\Entity\\DefendantName -->
<g id="node8" class="node"><title>\\Application\\Entity\\DefendantName</title>
<polygon fill="none" stroke="black" points="569.168,-960 465.168,-960 465.168,-924 569.168,-924 569.168,-960"/>
<text text-anchor="middle" x="517.168" y="-939.2" font-family="Courier,monospace" font-size="11.00">DefendantName</text>
</g>
<!-- \\Application\\Entity\\Interpreter -->
<g id="node9" class="node"><title>\\Application\\Entity\\Interpreter</title>
<polygon fill="none" stroke="black" points="562.668,-906 471.668,-906 471.668,-870 562.668,-870 562.668,-906"/>
<text text-anchor="middle" x="517.168" y="-885.2" font-family="Courier,monospace" font-size="11.00">Interpreter</text>
</g>
<!-- \\Application\\Entity\\Person -->
<g id="node10" class="node"><title>\\Application\\Entity\\Person</title>
<polygon fill="none" stroke="black" points="209.834,-717 152.834,-717 152.834,-681 209.834,-681 209.834,-717"/>
<text text-anchor="middle" x="181.334" y="-696.2" font-family="Courier,monospace" font-size="11.00">Person</text>
</g>
<!-- \\Application\\Entity\\Interpreter&#45;&gt;\\Application\\Entity\\Person -->
<g id="edge1" class="edge"><title>\\Application\\Entity\\Interpreter&#45;&gt;\\Application\\Entity\\Person</title>
<path fill="none" stroke="black" d="M471.383,-878.898C454.426,-874.608 435.229,-868.707 418.668,-861 337.53,-823.244 253.715,-758.548 211.057,-723.423"/>
<polygon fill="none" stroke="black" points="213.265,-720.707 203.334,-717.016 208.795,-726.094 213.265,-720.707"/>
</g>
<!-- \\Application\\Entity\\InterpreterLanguage -->
<g id="node11" class="node"><title>\\Application\\Entity\\InterpreterLanguage</title>
<polygon fill="none" stroke="black" points="589.668,-852 444.668,-852 444.668,-816 589.668,-816 589.668,-852"/>
<text text-anchor="middle" x="517.168" y="-831.2" font-family="Courier,monospace" font-size="11.00">InterpreterLanguage</text>
</g>
<!-- \\Application\\Entity\\AnonymousJudge -->
<g id="node12" class="node"><title>\\Application\\Entity\\AnonymousJudge</title>
<polygon fill="none" stroke="black" points="572.668,-798 461.668,-798 461.668,-762 572.668,-762 572.668,-798"/>
<text text-anchor="middle" x="517.168" y="-777.2" font-family="Courier,monospace" font-size="11.00">AnonymousJudge</text>
</g>
<!-- \\Application\\Entity\\Role -->
<g id="node13" class="node"><title>\\Application\\Entity\\Role</title>
<polygon fill="none" stroke="black" points="544.168,-744 490.168,-744 490.168,-708 544.168,-708 544.168,-744"/>
<text text-anchor="middle" x="517.168" y="-723.2" font-family="Courier,monospace" font-size="11.00">Role</text>
</g>
<!-- \\Application\\Entity\\InterpreterEvent -->
<g id="node14" class="node"><title>\\Application\\Entity\\InterpreterEvent</title>
<polygon fill="none" stroke="black" points="579.668,-690 454.668,-690 454.668,-654 579.668,-654 579.668,-690"/>
<text text-anchor="middle" x="517.168" y="-669.2" font-family="Courier,monospace" font-size="11.00">InterpreterEvent</text>
</g>
<!-- \\Application\\Entity\\Event -->
<g id="node15" class="node"><title>\\Application\\Entity\\Event</title>
<polygon fill="none" stroke="black" points="544.168,-636 490.168,-636 490.168,-600 544.168,-600 544.168,-636"/>
<text text-anchor="middle" x="517.168" y="-615.2" font-family="Courier,monospace" font-size="11.00">Event</text>
</g>
<!-- \\Application\\Entity\\JudgeFlavor -->
<g id="node16" class="node"><title>\\Application\\Entity\\JudgeFlavor</title>
<polygon fill="none" stroke="black" points="562.668,-582 471.668,-582 471.668,-546 562.668,-546 562.668,-582"/>
<text text-anchor="middle" x="517.168" y="-561.2" font-family="Courier,monospace" font-size="11.00">JudgeFlavor</text>
</g>
<!-- \\Application\\Entity\\Judge -->
<g id="node17" class="node"><title>\\Application\\Entity\\Judge</title>
<polygon fill="none" stroke="black" points="544.168,-528 490.168,-528 490.168,-492 544.168,-492 544.168,-528"/>
<text text-anchor="middle" x="517.168" y="-507.2" font-family="Courier,monospace" font-size="11.00">Judge</text>
</g>
<!-- \\Application\\Entity\\Judge&#45;&gt;\\Application\\Entity\\Person -->
<g id="edge4" class="edge"><title>\\Application\\Entity\\Judge&#45;&gt;\\Application\\Entity\\Person</title>
<path fill="none" stroke="black" d="M490.096,-514.766C469.971,-519.02 441.758,-526.255 418.668,-537 337.53,-574.756 253.715,-639.452 211.057,-674.577"/>
<polygon fill="none" stroke="black" points="208.795,-671.906 203.334,-680.984 213.265,-677.293 208.795,-671.906"/>
</g>
<!-- \\Application\\Entity\\CourtClosing -->
<g id="node18" class="node"><title>\\Application\\Entity\\CourtClosing</title>
<polygon fill="none" stroke="black" points="566.168,-474 468.168,-474 468.168,-438 566.168,-438 566.168,-474"/>
<text text-anchor="middle" x="517.168" y="-453.2" font-family="Courier,monospace" font-size="11.00">CourtClosing</text>
</g>
<!-- \\Application\\Entity\\Hat -->
<g id="node19" class="node"><title>\\Application\\Entity\\Hat</title>
<polygon fill="none" stroke="black" points="544.168,-420 490.168,-420 490.168,-384 544.168,-384 544.168,-420"/>
<text text-anchor="middle" x="517.168" y="-399.2" font-family="Courier,monospace" font-size="11.00">Hat</text>
</g>
<!-- \\Application\\Entity\\Language -->
<g id="node20" class="node"><title>\\Application\\Entity\\Language</title>
<polygon fill="none" stroke="black" points="552.668,-366 481.668,-366 481.668,-330 552.668,-330 552.668,-366"/>
<text text-anchor="middle" x="517.168" y="-345.2" font-family="Courier,monospace" font-size="11.00">Language</text>
</g>
<!-- \\Application\\Controller\\Factory\\IndexControllerFactory -->
<g id="node21" class="node"><title>\\Application\\Controller\\Factory\\IndexControllerFactory</title>
<polygon fill="none" stroke="black" points="599.668,-258 434.668,-258 434.668,-222 599.668,-222 599.668,-258"/>
<text text-anchor="middle" x="517.168" y="-237.2" font-family="Courier,monospace" font-size="11.00">IndexControllerFactory</text>
</g>
<!-- \\Zend\\ServiceManager\\Factory\\FactoryInterface -->
<g id="node24" class="node"><title>\\Zend\\ServiceManager\\Factory\\FactoryInterface</title>
<ellipse fill="none" stroke="black" cx="181.334" cy="-72" rx="181.168" ry="18"/>
<text text-anchor="middle" x="181.334" y="-68.3" font-family="Times,serif" font-size="14.00" fill="gray">\Zend\ServiceManager\Factory\FactoryInterface</text>
</g>
<!-- \\Application\\Controller\\Factory\\IndexControllerFactory&#45;&gt;\\Zend\\ServiceManager\\Factory\\FactoryInterface -->
<g id="edge2" class="edge"><title>\\Application\\Controller\\Factory\\IndexControllerFactory&#45;&gt;\\Zend\\ServiceManager\\Factory\\FactoryInterface</title>
<path fill="none" stroke="black" stroke-dasharray="1,5" d="M434.665,-223.767C429.188,-222.017 423.809,-220.099 418.668,-218 339.764,-185.782 257.177,-128.472 213.591,-96.0652"/>
<polygon fill="none" stroke="black" points="215.508,-93.1278 205.407,-89.9307 211.31,-98.729 215.508,-93.1278"/>
</g>
<!-- \\Application\\Controller\\IndexController -->
<g id="node22" class="node"><title>\\Application\\Controller\\IndexController</title>
<polygon fill="none" stroke="black" points="576.168,-204 458.168,-204 458.168,-168 576.168,-168 576.168,-204"/>
<text text-anchor="middle" x="517.168" y="-183.2" font-family="Courier,monospace" font-size="11.00">IndexController</text>
</g>
<!-- \\Zend\\Mvc\\Controller\\AbstractActionController -->
<g id="node25" class="node"><title>\\Zend\\Mvc\\Controller\\AbstractActionController</title>
<ellipse fill="none" stroke="black" cx="181.334" cy="-18" rx="180.868" ry="18"/>
<text text-anchor="middle" x="181.334" y="-14.3" font-family="Times,serif" font-size="14.00" fill="gray">\Zend\Mvc\Controller\AbstractActionController</text>
</g>
<!-- \\Application\\Controller\\IndexController&#45;&gt;\\Zend\\Mvc\\Controller\\AbstractActionController -->
<g id="edge3" class="edge"><title>\\Application\\Controller\\IndexController&#45;&gt;\\Zend\\Mvc\\Controller\\AbstractActionController</title>
<path fill="none" stroke="black" d="M458.156,-181.791C444.097,-178.499 429.899,-173.016 418.668,-164 373.086,-127.408 409.56,-79.8975 362.668,-45 356.061,-40.0831 348.934,-35.8866 341.462,-32.3151"/>
<polygon fill="none" stroke="black" points="342.392,-28.9023 331.826,-28.1181 339.596,-35.32 342.392,-28.9023"/>
</g>
<!-- \\Application\\Module -->
<g id="node23" class="node"><title>\\Application\\Module</title>
<polygon fill="none" stroke="black" points="545.668,-150 488.668,-150 488.668,-114 545.668,-114 545.668,-150"/>
<text text-anchor="middle" x="517.168" y="-129.2" font-family="Courier,monospace" font-size="11.00">Module</text>
</g>
</g>
</svg>
